<?xml version="1.0" encoding="UTF-8" standalone="no"?>
<svg
   xmlns:dc="http://purl.org/dc/elements/1.1/"
   xmlns:cc="http://creativecommons.org/ns#"
   xmlns:rdf="http://www.w3.org/1999/02/22-rdf-syntax-ns#"
   xmlns:svg="http://www.w3.org/2000/svg"
   xmlns="http://www.w3.org/2000/svg"
   xmlns:sodipodi="http://sodipodi.sourceforge.net/DTD/sodipodi-0.dtd"
   xmlns:inkscape="http://www.inkscape.org/namespaces/inkscape"
   version="1.1"
   id="Layer_1"
   x="0px"
   y="0px"
   viewBox="0 0 1744 1744"
   enable-background="new 0 0 1217 1744"
   xml:space="preserve"
   sodipodi:docname="caecilia-logo.svg"
   width="1744"
   height="1744"
   inkscape:version="0.92.1 r15371"><metadata
     id="metadata105"><rdf:RDF><cc:Work
         rdf:about=""><dc:format>image/svg+xml</dc:format><dc:type
           rdf:resource="http://purl.org/dc/dcmitype/StillImage" /><dc:title></dc:title></cc:Work></rdf:RDF></metadata><defs
     id="defs103" /><sodipodi:namedview
     pagecolor="#ffffff"
     bordercolor="#666666"
     borderopacity="1"
     objecttolerance="10"
     gridtolerance="10"
     guidetolerance="10"
     inkscape:pageopacity="0"
     inkscape:pageshadow="2"
     inkscape:window-width="640"
     inkscape:window-height="480"
     id="namedview101"
     showgrid="false"
     scale-x="1"
     viewbox-x="0"
     inkscape:zoom="0.1353211"
     inkscape:cx="608.5"
     inkscape:cy="872"
     inkscape:window-x="71"
     inkscape:window-y="117"
     inkscape:window-maximized="0"
     inkscape:current-layer="Layer_1" /><g
     id="g98"
     transform="translate(282)"><path
       d="m 596.865,76.714 c 1.592,-1.946 3.178,-4.416 5.918,-4.714 2.054,20.777 -15.41,132.11 -16.959,187.139 -1.101,37.78 3.271,54.302 4.601,70.926 0.926,12.183 -2.065,13.801 -6.688,23.209 -15.696,31.534 -19.312,76.718 -14.822,111.747 5.365,38.51 5.973,31.532 2.835,35.454 -6.83,6.864 -14.945,17.084 -21.954,17.021 -2.604,-0.079 -4.815,-1.671 -7.251,-2.413 -26.524,-8.561 -68.85,-10.452 -84.887,-34.414 -11.756,-17.243 1.262,-31.011 2.267,-40.393 1.499,-12.963 -8.193,-28.918 -11.903,-44.438 -2.499,-10.701 -0.231,-14.791 16.11,-29.756 11.147,12.008 38.749,46.917 58.225,42.114 -3.395,-3.475 -8,-4.545 -14.439,-8.724 -14.318,-9.188 -33.331,-26.311 -43.718,-40.646 -20.555,-29.813 -9.426,-65.784 8.179,-50.361 6.047,5.082 34.932,52.381 63.113,53.078 -1.479,-2.295 -4.084,-3.375 -6.39,-4.618 -52.003,-25.052 -79.561,-101.495 -65.363,-124.206 5.787,-9.034 17.627,-15.236 24.728,-14.074 4.48,0.58 6.902,13.811 19.879,45.405 11.256,27.574 25.398,57.211 45,75.375 2.391,2.188 4.748,4.556 7.779,5.844 -2.363,-11.302 -53.077,-85.82 -59.811,-118.063 -2.098,-9.886 -4.202,-31.867 2.458,-39.403 6.759,-7.795 20.503,-12.107 33.643,-10.868 15.45,1.213 2.718,49.603 28.418,121.343 3.272,8.646 7.994,20.426 15.57,24.632 -1.834,-6.542 -5.496,-12.369 -8.196,-18.563 -23.208,-50.822 -22.503,-115.593 -17.561,-144.597 4.541,-26.095 11.039,-23.576 25.532,-53.764 4.268,-10.226 9.066,-20.34 15.687,-29.272 m -55.879,286.949 c 2.273,0.878 4.759,0.804 7.054,0.062 -1.93,-1.547 -5.395,-2.436 -7.054,-0.062 z"
       id="path2"
       inkscape:connector-curvature="0"
       style="fill:#2badfb" /><path
       d="m 1064.315,170.668 c 6.171,-5.749 12.201,-11.666 18.512,-17.263 4.207,10.537 11.865,23.2 5.996,54.692 -6.155,31.458 -20.835,58.112 -41.681,82.62 -17.932,20.88 -43.599,46.142 -67.343,61.504 -31.031,22.098 -13.751,14.067 -31.039,22.871 -2.61,1.378 -5.479,2.655 -7.172,5.192 7.635,-0.111 30.966,-14.623 37.395,-18.776 30.862,-19.779 60.695,-60.568 73.142,-46.704 5.557,6.191 5.876,22.95 3.195,30.791 -11.437,35.262 -100.456,50.898 -114.255,62.713 8.53,1.867 105.641,-39.138 117.912,-40.241 0.971,29.667 -35.156,51.853 -36.759,53.123 4.567,-1.029 20.201,-7.851 30.369,-2.177 5.212,3.008 8.117,16.862 -8.527,34.02 -38.529,38.771 -120.017,60.797 -127.244,65.098 7.146,2.957 26.209,-2.198 35.646,-5.951 42.481,-16.076 45.117,-18.623 46.463,5.169 0.017,16.234 0.225,18.161 -10.282,29.886 -15.307,15.612 -31.313,19.435 -46.333,23.383 -44.619,10.678 -47.688,3.804 -55.586,9.765 -0.011,0.433 -0.034,1.294 -0.051,1.727 4.162,0.612 54.257,-8.683 75.938,-5.063 34.461,6.839 1.177,52.045 -75.926,57.617 -7.229,0.685 -15.584,1.62 -16.982,4.05 14.118,5.53 30.043,-5.684 42.66,16.093 3.016,4.801 -1.649,19.367 -7.819,28.266 -12.667,18.638 -35.977,4.217 -49.022,9.129 9.046,8.728 16.939,-5.096 19.277,36.023 1.078,19.16 -7.145,21.152 -25.464,39.443 3.789,20.847 6.866,30.015 5.175,36.9 -4.213,14.244 -23.766,19.874 -27.219,21.572 3.485,47.466 8.546,66.602 -27.962,75.156 -9.935,1.961 -10.299,1.538 -17.724,-9.928 -14.461,-24.98 -27.446,-65.643 -39.988,-71.365 -8.549,7.472 53.629,80.788 48.004,111.583 -1.85,10.284 -13.635,14.886 -21.465,13.646 -28.28,-4.892 -42.841,-89.138 -51.745,-95.001 -9.187,19.096 61.886,118.943 8.837,128.768 -3.217,0.124 -5.299,-2.846 -7.026,-5.141 -14.422,-21.076 -51.42,-97.528 -62.494,-121.208 18.886,-15.12 53.131,-40.133 55.457,-64.159 1.884,-18.381 -5.651,-41.998 6.126,-39.893 1.704,0.624 2.616,2.762 4.612,2.711 6.995,0.385 26.152,-3.526 39.544,-9.973 8.231,-4.176 16.062,-17.947 18.512,-28.114 0.894,-3.443 0.349,-7.183 1.963,-10.446 1.513,-3.692 19.828,-16.682 22.871,-49.815 2.516,-19.415 5.615,-16.292 11.919,-22.241 18.033,-16.508 11.291,-33.988 15.789,-41.58 3.319,-5.248 8.82,-8.477 13.337,-12.566 9.401,-7.595 5.849,-15.1 6.812,-36.951 4.843,-1.783 9.787,-3.296 14.597,-5.186 21.609,-8.849 15.04,-23.656 9.518,-53.803 -0.203,-0.709 -0.051,-1.462 0.619,-1.862 7.087,-6.199 14.709,-11.993 20.374,-19.603 12.37,-16.404 2.831,-32.489 8.617,-46.468 5.157,-11.872 17.206,-26.034 21.443,-38.773 4.946,-16.082 -14.825,-13.558 -37.294,-16.256 35.287,-38.686 136.579,-149.192 173.771,-187.004 M 937.904,439.212 c -1.907,0.214 -4.663,0.349 -5.209,2.61 7.542,1.027 28.373,-1.586 33.098,-4.905 -5.65,-1.062 -12.545,1.865 -27.889,2.295 z"
       id="path4"
       inkscape:connector-curvature="0"
       style="fill:#2badfb" /><path
       d="m 326.245,320.699 c 17.771,7.361 -82.034,209.166 -101.059,166.849 -16.232,-39.2 71.283,-176.555 101.059,-166.849 z"
       id="path6"
       inkscape:connector-curvature="0"
       style="fill:#cb9933" /><path
       d="m 335.212,365.744 c 110.264,130.094 153.153,150.263 197.275,174.134 -5.419,44.711 -5.871,42.422 -17.106,37.176 -21.304,-11.303 -26.057,-16.848 -70.031,-41.861 -61.485,-35.374 -52.581,-22.285 -57.336,-51.778 -0.489,-2.599 -1.209,-5.743 -3.921,-6.879 -4.247,-1.581 -9.45,-1.434 -13.112,1.474 -12.425,8.773 13.48,10.994 -109.857,6.683 15.936,-31.478 33.058,-62.342 50.591,-92.959 18.868,-32.818 17.338,-32.53 23.497,-25.99 z"
       id="path8"
       inkscape:connector-curvature="0"
       style="fill:#fbcd03" /><path
       d="m 540.986,363.663 c 1.659,-2.374 5.124,-1.485 7.054,0.062 -2.295,0.742 -4.782,0.815 -7.054,-0.062 z"
       id="path10"
       inkscape:connector-curvature="0"
       style="fill:#fbfdfb" /><path
       d="m 599.036,367.955 c 23.774,45.063 59.616,84.114 62.471,114.16 0.627,7.962 1.472,11.005 -3.628,12.774 -18.843,5.914 -24.993,-2.592 -33.064,-4.731 -15.495,-4.414 -31.767,-1.441 -39.223,-4.095 -14.497,-5.167 -15.626,-86.47 0.956,-115.363 3.786,-6.124 8.914,-8.916 12.488,-2.745 z"
       id="path12"
       inkscape:connector-curvature="0"
       style="fill:#2badfb" /><path
       d="m 915.235,367.336 c 15.321,12.932 -18.65,56.767 -39.758,58.86 -5.462,0.491 -7.984,-12.178 -13.719,-19.434 -4.542,-5.927 -13.133,-1.535 -19.569,-5.209 -4.715,-3.133 14.603,-17.853 19.395,-21.302 14.899,-10.642 43.483,-21.335 53.651,-12.915 z"
       id="path14"
       inkscape:connector-curvature="0"
       style="fill:#2badfb" /><path
       d="m 856.797,412.887 c -0.787,10.043 1.389,20.688 -16.425,45.715 -21.2,29.044 -34.386,29.931 -41.141,33.683 -16.701,8.844 -18.903,15.174 -37.131,20.222 -8.094,2.315 -15.257,2.568 -20.183,5.507 4.532,4.63 19.082,1.285 25.678,-1.103 4.393,-1.519 8.319,-4.224 12.881,-5.276 10.583,-2.59 8.352,13.969 8.691,32.164 -0.107,1.131 0.225,2.565 -0.816,3.364 -20.382,19.504 -27.828,28.086 -35.994,31.534 -5.435,2.318 -11.119,0.335 -14.721,2.542 3.949,3.594 9.529,3.943 14.586,4.331 4.017,0.289 4.584,5.652 4.584,25.706 0.08,22.386 -4.061,32.413 -16.419,43.774 -8.095,7.271 -5.896,15.01 -6.609,32.709 -0.826,19.206 -3.51,29.492 -22.371,51.385 -8.422,9.354 -9.734,9.431 -12.128,9.731 -1.682,-18.014 19.554,-68.617 14.468,-90.608 -3.59,-15.673 -12.751,-35.521 -19.749,-74.149 -4.001,-23.419 -9.291,-53.657 15.193,-88.504 27.642,-39.833 74.212,-55.444 98.837,-71.578 15.596,-9.959 9.091,-11.662 48.769,-11.149 z"
       id="path16"
       inkscape:connector-curvature="0"
       style="fill:#2badfb" /><path
       d="m 898.804,431.039 c 6.477,1.047 -2.776,38.39 -41.507,52.915 -7.772,2.73 -18.997,6.1 -21.15,9.878 -3.014,5.358 12.41,-1.555 16.869,-3.437 7.783,-3.228 10.428,-3.675 18.197,0.849 9.226,5.479 7.868,16.122 1.254,24.756 -12.29,15.893 -29.06,16.929 -39.302,25.138 2.689,5.31 9.399,6.722 12.229,11.903 2.013,3.773 4.051,16.15 -3.414,20.239 -19.794,11.24 -25.264,1.739 -22.63,24.373 1.037,9.702 5.17,13.319 -3.122,20.756 -10.487,9.454 -20.78,11.545 -22.044,19.581 -1.536,9.035 2.626,24.996 2.964,34.043 0.557,11.797 -25.846,25.065 -26.055,35.511 0.051,4.714 2.683,9.056 2.301,13.826 -0.664,11.788 -41.994,28.289 -49.826,23.788 -4.496,-2.874 34.049,-91.804 40.455,-114.3 4.93,-17.195 1.489,-26.068 4.005,-37.035 2.774,-11.756 19.217,-24.412 24.311,-42.092 3.049,-10.434 1.935,-21.426 2.149,-32.141 0.146,-2.323 -0.405,-4.815 0.326,-7.026 0.528,-0.563 46.18,-48.204 66.797,-64.795 9.772,-7.752 24.832,-18.87 37.193,-16.73 z"
       id="path18"
       inkscape:connector-curvature="0"
       style="fill:#2badfb" /><path
       d="m 965.793,436.917 c -4.645,3.263 -25.279,5.969 -33.098,4.905 0.546,-2.261 3.302,-2.396 5.209,-2.61 15.401,-0.432 22.21,-3.363 27.889,-2.295 z"
       id="path20"
       inkscape:connector-curvature="0"
       style="fill:#fbfdfb" /><path
       d="m 379.267,484.651 c 3.319,6.795 -0.628,49.039 -5.912,71.134 -11.416,38.904 -16.394,78.874 -27.709,96.7 -2.316,-18.497 0.217,-20.991 -9.467,-79.037 -10.876,-65.042 -16.744,-72.048 -0.709,-73.693 8.567,-0.636 17.398,-0.557 25.577,-3.51 7.652,-2.76 11.399,-11.131 18.22,-11.594 z"
       id="path22"
       inkscape:connector-curvature="0"
       style="fill:#fbcdcb" /><path
       d="m 582.476,499.957 c 12.495,-4.481 74.283,1.968 89.944,12.33 19.155,12.665 3.891,58.498 16.223,90.585 22.061,55.302 20.194,147.941 -6.418,129.645 -4.179,-2.874 -9.506,-2.621 -14.344,-2.526 -26.507,1.478 -33.476,11.186 -44.185,-6.362 -29.71,-56.459 4.982,-101.695 18.304,-137.155 0.281,-1.142 1.119,-2.436 0.371,-3.549 -2.396,-4.275 -7.678,-5.4 -10.704,-9.062 -8.466,-9.383 -12.476,-21.611 -17.949,-32.777 -21.37,1.908 -31.455,3.629 -37.783,1.817 -6.441,-2.047 -10.586,-8.826 -10.541,-15.429 -0.523,-13.879 12.4,-25.841 17.082,-27.517 m 52.251,28.631 c 1.781,31.775 29.634,41.383 36.158,39.921 -4.697,-6.172 -24.059,-6.611 -26.578,-25.864 -0.922,-6.087 0.443,-19.341 -8.331,-17.539 -1.418,0.478 -1.249,2.278 -1.249,3.482 M 666.3,638.107 c -1.831,3.79 -0.847,14.002 2.441,19.046 5.258,8.158 11.216,-2.244 3.178,-15.019 -1.31,-1.906 -2.987,-4.302 -5.619,-4.027 m -30.156,13.933 c -1.451,0.186 -2.188,2.273 -0.979,3.201 5.121,5.021 18.912,1.401 16.684,21.054 -1.023,7.267 -5.569,23.585 0.343,24.086 8.345,-1.724 17.54,-35.58 -6.739,-45.833 -2.947,-1.208 -6.035,-2.929 -9.309,-2.508 z"
       id="path24"
       inkscape:connector-curvature="0"
       style="fill:#633103" /><path
       d="m 537.847,525.078 c 4.52,-2.932 10.714,4.767 15.874,8.618 3.358,2.841 7.228,5.063 10.344,8.196 13.534,13.733 -10.931,65.702 -4.787,79.031 0.827,1.901 1.794,4.134 0.63,6.12 -3.541,6.388 -18.19,18.399 -24.829,22.978 -10.646,6.834 -10.672,4.583 -13.073,1.423 -6.528,-10.675 -24.263,-62.878 -22.871,-71.691 6.866,1.777 8.976,9.257 18.911,11.008 7.798,1.403 10.635,-6.211 13.877,-13.658 5.258,-12.537 9.808,-29.36 6.317,-42.553 -0.714,-3.059 -1.9,-6.462 -0.393,-9.472 z"
       id="path26"
       inkscape:connector-curvature="0"
       style="fill:#fbcdcb" /><path
       d="m 635.976,525.106 c 2.492,-0.512 5.372,0.782 6.311,3.251 4.842,11.883 -5.549,23.157 22.433,36.068 2.211,1.074 4.624,2.059 6.165,4.084 -7.827,1.755 -26.608,-9.738 -31.421,-21.009 -3.378,-7.688 -6.628,-21.335 -3.488,-22.394 z"
       id="path28"
       inkscape:connector-curvature="0"
       style="fill:#fbfdfb" /><path
       d="m 457.212,552.528 c 30.567,15.175 57.596,78.029 54.664,112.618 -1.39,16.273 -14.048,18.608 -20.874,15.041 -13.614,-6.935 -40.859,-82.059 -41.484,-125.753 0.437,-3.783 -0.16,-5.186 7.694,-1.906 z"
       id="path30"
       inkscape:connector-curvature="0"
       style="fill:#2badfb" /><path
       d="m 610.359,559.278 c -1.457,2.115 -4.067,3.105 -5.456,5.282 -1.159,1.845 -0.596,4.388 1.012,5.794 2.599,2.447 6.311,2.79 9.54,3.954 7.986,2.783 17.234,12.201 15.789,14.321 -5.147,9.253 -10.254,18.557 -14.546,28.254 -4.404,9.084 -7.436,18.833 -12.538,27.574 -10.703,-0.206 -35.729,-25.472 -37.204,-29.559 -2.404,-6.853 -2.091,-16.46 1.952,-15.548 14.853,2.363 16.294,20.09 34.729,-10.181 1.423,-2.351 2.739,-4.838 3.099,-7.605 -4.883,-2.531 -10.766,-2.115 -15.497,-5.018 -10.048,-6.081 -14.145,-17.846 -10.918,-19.688 5.968,-3.422 33.894,-6.821 30.038,2.42 z"
       id="path32"
       inkscape:connector-curvature="0"
       style="fill:#fbcdcb" /><path
       d="m 378.428,562.31 c 17.042,15.975 25.427,45.617 35.393,61.735 18.421,30.16 71.975,67.657 74.481,69.728 -6.93,5.434 -14.192,10.468 -20.723,16.397 -24.315,22.178 -45.938,57.4 -47.83,89.584 -0.321,5.816 -1.001,11.621 -1.119,17.454 30.4,0.88 54.784,-2.565 71.86,7.521 4.357,2.565 15.118,9.694 15.666,14.923 -3.938,2.121 -8.37,0.051 -12.381,-0.759 -53.432,-11.646 -71.528,-1.611 -117.186,-40.348 -27.721,-23.072 -56.403,-28.9 -64.615,-37.204 -4.188,-4.206 -5.118,-24.194 0.63,-36.827 8.476,-19.527 25.775,-24.864 44.393,-73.761 13.252,-34.574 18.176,-70.31 21.431,-88.443 m 11.341,41.333 c -4.391,7.105 -3.653,41.147 -1.181,58.59 2.507,18.948 18.001,57.198 31.99,66.161 -5.148,-14.326 -21.376,-18.266 -24.818,-69.261 -1.287,-20.066 -1.182,-50.833 -4.742,-56.126 -0.603,-0.152 -1.019,0.062 -1.249,0.636 m 39.138,61.937 c -4.893,9.714 7.876,37.909 12.032,41.102 1.558,0.383 7.827,-1.965 2.509,-8.764 -8.148,-9.511 -7.792,-29.294 -14.541,-32.338 z"
       id="path34"
       inkscape:connector-curvature="0"
       style="fill:#fb99cb" /><path
       d="m 336.983,671.807 c 0.326,2.166 -1.299,3.853 -2.284,5.614 -44.47,73.018 -48.242,82.756 -52.363,74.25 -22.66,-50.851 -6.217,-109.005 21.054,-155.616 34.651,-58.61 30.216,-31.786 33.593,75.752 z"
       id="path36"
       inkscape:connector-curvature="0"
       style="fill:#cb3163" /><path
       d="m 575.928,579.99 c 5.332,-0.662 13.639,4.665 14.462,9.377 0.407,4.241 -9.118,5.739 -13.708,3.448 -3.913,-2.02 -3.844,-10.689 -0.754,-12.825 z"
       id="path38"
       inkscape:connector-curvature="0"
       style="fill:#fbcd03" /><path
       d="m 391.017,603.007 c 5.517,8.204 1.408,61.036 9.534,88.341 5.434,18.145 17.093,28.887 20.025,37.046 -13.489,-8.644 -29.341,-46.141 -31.99,-66.161 -3.298,-23.281 -2.431,-60.453 2.431,-59.226 z"
       id="path40"
       inkscape:connector-curvature="0"
       style="fill:#fbfdfb" /><path
       d="m 580.901,640.38 c 19.518,8.977 25.354,30.203 31.044,37.508 -0.231,15.953 4.359,31.697 11.751,45.743 -0.849,-0.456 -1.693,-0.911 -2.537,-1.356 7.683,35.775 8.074,49.878 23.074,80.28 8.042,15.438 9.644,16.538 11.914,17.629 1.981,-13.635 -20.715,-55.542 -18.011,-64.446 10.186,1.939 24.803,36.238 25.959,37.783 0.366,-0.017 1.103,-0.051 1.468,-0.068 1.704,-3.471 0.219,-7.307 -0.872,-10.716 -9.499,-26.117 -22.256,-33.085 -25.521,-36.118 3.729,-4.511 8.016,-9.219 13.911,-10.716 8.01,-2.093 16.667,-0.281 23.833,3.639 14.838,8.237 11.668,17.852 13.883,21.504 1.71,1.35 4.151,1.266 5.963,2.514 5.681,3.734 11.678,14.811 8.859,27.118 -2.551,11.122 -18.682,28.341 -27.658,35.933 -24.06,20.211 -56.274,22.395 -89.348,23.158 -23.408,0.661 -27.357,-2.003 -96.379,-29.604 -9.863,-3.847 -36.402,-13.963 -46.969,-15.553 -10.705,-1.855 -18.383,-3.66 -17.511,-15.053 1.121,-21.128 27.946,-49.52 49.382,-72.051 81.146,-82.699 87.656,-84.384 103.765,-77.128 z"
       id="path42"
       inkscape:connector-curvature="0"
       style="fill:#fb99cb" /><path
       d="m 666.3,638.107 c 4.819,-0.505 10.503,10.896 9.321,18.152 -1.135,7.065 -8.81,4.511 -10.136,-10.676 -0.192,-2.514 -0.31,-5.147 0.815,-7.476 z"
       id="path44"
       inkscape:connector-curvature="0"
       style="fill:#fbfdfb" /><path
       d="m 636.144,652.04 c 3.274,-0.422 6.362,1.299 9.309,2.509 24.27,10.249 15.088,44.108 6.739,45.833 -5.953,-0.505 -1.324,-17.121 -0.343,-24.086 2.227,-19.64 -11.574,-16.044 -16.684,-21.054 -1.209,-0.929 -0.472,-3.016 0.979,-3.202 z"
       id="path46"
       inkscape:connector-curvature="0"
       style="fill:#fbfdfb" /><path
       d="m 428.907,665.58 c 4.921,2.22 6.031,12.853 8.589,20.306 4.751,13.74 9.818,14.324 7.768,18.281 -0.934,1.35 -2.543,2.953 -4.326,2.514 -4.337,-3.332 -16.851,-31.531 -12.031,-41.101 z"
       id="path48"
       inkscape:connector-curvature="0"
       style="fill:#fbfdfb" /><path
       d="m 518.126,859.148 c 1.237,-3.921 2.003,-7.993 3.538,-11.824 4.354,0.405 25.519,3.035 30.713,4.939 0.552,4.262 -17.001,113.008 18.349,130.253 -1.024,-4.123 -3.735,-7.492 -5.968,-11.008 -19.792,-28.685 -12.89,-86.891 -7.515,-93.673 13.597,4.055 17.111,73.351 26.044,69.019 12.815,-12.742 -17.956,-31.02 -1.856,-44.651 6.968,-6.048 24.933,-10.081 29.065,-10.091 6.069,-0.316 4.627,9.092 4.489,15.064 -1.947,48.9 -21.249,47.086 -23.709,93.966 -2.926,41.918 10.473,86.827 34.448,118.643 13.313,17.926 71.451,62.619 78.75,54.4 0.951,-5.013 -8.193,-8.178 -13.016,-12.122 -87.907,-67.971 -67.976,-191.595 -58.365,-198.096 6.195,5.509 9.171,82.745 43.588,105.458 5.537,3.521 8.084,1.985 14.726,-5.49 17.404,-20.628 11.76,-61.986 5.704,-74.036 -1.266,7.262 -0.36,14.687 -0.686,22.022 -0.242,-10.884 -1.125,-21.763 -3.082,-32.473 2.169,-4.563 1.721,-4.547 0.152,-7.313 -0.349,1.221 -0.681,2.458 -0.9,3.724 -0.782,-3.454 -1.693,-6.874 -2.638,-10.277 2.398,-2.378 1.048,-3.49 3.999,-22.5 63.22,125.814 10.116,321.289 182.07,509.16 15.418,16.611 29.396,34.481 43.133,52.487 30.208,40.063 59.642,78.801 67.613,144.889 0.27,3.364 0.444,7.487 -2.492,9.821 -6.231,4.787 -42.292,11.263 -50.845,12.161 -31.19,3.371 -67.48,-15.119 -93.589,-29.014 -34.724,-18.456 -65.36,-42.504 -113.997,-46.508 -41.999,-3.249 -162.783,78.137 -205.684,64.12 -28.332,-10.362 15.157,-31.02 18.692,-48.437 3.74,-20.474 3.632,-15.946 41.591,-84.01 12.944,2.547 40.63,16.447 65.38,6.435 20.938,-8.147 32.14,-52.14 36.934,-74.425 7.083,-32.538 -4.481,-107.134 6.424,-116.792 4.041,-3.336 10.535,3.178 14.237,6.812 11.624,11.5 26.872,43.249 33.339,58.326 6.691,16.201 11.205,25.171 11.048,66.611 0.191,16.677 0.7,19.498 1.806,22.202 6.158,-6.875 4.32,-68.117 -1.963,-85.579 -8.595,-24.176 -23.226,-45.889 -40.691,-64.542 C 588.32,1224.005 469.503,1024.436 518.126,859.148 m -1.086,54.664 c -13.49,76.86 71.269,314.93 240.138,450.277 3.139,2.374 6.103,5.124 9.827,6.564 -3.105,-7.065 -6.83,-4.911 -44.455,-41.693 C 521.408,1128.666 530.938,924.58 521.568,901.825 c -2.593,3.476 -3.633,7.819 -4.528,11.987 m 159.503,307.671 c -4.468,21.36 45.314,62.273 65.683,96.21 1.361,2.126 2.076,5.287 4.95,5.827 -0.6,-7.363 -9.637,-16.848 -23.411,-37.969 -3.855,-5.77 -36.806,-60.807 -47.222,-64.068 m 99.67,185.272 c 0.911,5.44 10.399,20.755 14.614,30.589 24.888,55.932 1.445,98.181 1.969,114.03 5.851,-3.914 14.711,-42.886 12.971,-80.027 -1.474,-22.763 -5.274,-34.794 -18.293,-53.758 -2.672,-3.645 -5.254,-7.487 -8.786,-10.361 -0.709,-0.344 -1.991,-1.621 -2.475,-0.473 m -63.563,51.586 c -4.534,15.986 -5.827,32.788 -11.458,48.493 9.444,-8.733 15.345,-38.516 11.458,-48.493 z"
       id="path50"
       inkscape:connector-curvature="0"
       style="fill:#fb99cb" /><path
       d="m 575.118,859.519 c -0.602,2.289 -2.936,3.341 -4.624,4.747 -4.791,3.221 -6.828,4.539 -12.128,-3.336 -5.24,-7.659 12.857,-3.591 16.752,-1.411 z"
       id="path52"
       inkscape:connector-curvature="0"
       style="fill:#039933" /><path
       d="m 618.448,858.366 c 13.01,0.611 32.953,7.261 38.447,17.089 3.977,6.913 12.113,28.571 10.029,35.089 -4.866,-3.111 -8.713,-7.509 -12.949,-11.379 -22.895,-23.01 -24.406,-20.453 -32.254,-19.783 -19.728,2.16 -38.837,10.577 -47.25,7.594 -3.386,-1.575 -3.42,-5.923 -3.487,-9.118 -0.438,-7.238 16.299,-13.657 28.35,-13.641 13.657,-1.065 5.174,-5.828 19.114,-5.851 z"
       id="path54"
       inkscape:connector-curvature="0"
       style="fill:#33cd33" /><path
       d="m 625.89,883.397 c 3.494,1.174 10.424,7.694 10.541,11.914 0,0 -18.607,89.123 -20.396,139.54 -1.317,25.792 42.15,97.317 40.388,103.253 -9.111,0.198 -46.508,-44.499 -55.283,-89.91 -2.447,-12.499 -3.307,-25.251 -3.347,-37.963 0.837,-39.376 6.259,-36.978 18.394,-72.653 8.634,-24.712 4.741,-38.56 9.703,-54.181 z"
       id="path56"
       inkscape:connector-curvature="0"
       style="fill:#33cd33" /><path
       d="m 521.568,901.825 c 8.854,21.504 2.098,229.089 200.982,427.135 37.625,36.782 41.346,34.619 44.455,41.693 -18.013,-6.966 -176.979,-145.541 -235.047,-349.437 -6.959,-24.674 -25.569,-99.042 -10.39,-119.391 z"
       id="path58"
       inkscape:connector-curvature="0"
       style="fill:#fbfdfb" /><path
       d="m 678.619,924.021 c -1.097,-1.986 -2.773,-3.999 -2.509,-6.396 10.721,-6.759 18.518,30.819 2.509,6.396 z"
       id="path60"
       inkscape:connector-curvature="0"
       style="fill:#039933" /><path
       d="m 645.555,920.461 c 15.003,3.572 47.701,149.486 31.41,143.849 -5.234,-1.97 -17.374,-16.856 -23.889,-34.313 -12.209,-33.173 -12.469,-101.936 -7.521,-109.536 z"
       id="path62"
       inkscape:connector-curvature="0"
       style="fill:#039933" /><path
       d="m 660.551,922.446 c 10.278,-0.976 41.346,37.431 35.426,115.251 -0.943,10.84 -2.276,13.314 -8.893,24.272 -0.154,-18.645 2.502,-54.001 -19.091,-113.828 -4.463,-12.853 -7.83,-22.757 -7.442,-25.695 z"
       id="path64"
       inkscape:connector-curvature="0"
       style="fill:#33cd33" /><path
       d="m 693.491,972.132 c 1.562,2.751 2.024,2.734 -0.152,7.313 -0.248,-1.209 -0.523,-2.402 -0.748,-3.589 0.22,-1.266 0.552,-2.503 0.9,-3.724 z"
       id="path66"
       inkscape:connector-curvature="0"
       style="fill:#fbfdfb" /><path
       d="m 492.92,1043.806 c 4.787,-11.126 8.376,-22.714 12.893,-33.941 40.573,103.741 46.685,171.743 170.601,315.749 0.889,0.894 0.99,2.171 0.928,3.386 -3.091,116.127 4.097,200.422 -48.488,203.867 -11.019,0.917 -22.146,-1.507 -32.181,-6.024 -15.461,-7.45 -10.443,-10.72 -12.954,-14.602 -2.064,-2.194 -5.383,-1.463 -8.044,-2.109 -9.686,-2.233 -17.314,-8.983 -26.049,-13.309 -9.117,-4.743 -38.179,-18.48 -48.302,-19.389 1.316,1.041 2.722,1.963 4.101,2.936 -4.219,-1.187 -8.449,-2.34 -12.69,-3.443 0.906,-0.304 1.8,-0.635 2.7,-0.945 -2.886,-1.282 -6.238,-1.401 -8.983,0.304 -2.708,0.059 -28.544,-1.059 -45.326,0.034 8.63,-1.746 29.773,-3.184 36.737,-3.589 -5.26,-0.22 -56.205,-0.914 -79.971,9.219 -19.949,8.374 -45.343,34.503 -52.78,49.601 -13.242,25.628 -4.951,72.065 -8.584,97.785 -11.568,-6.041 -52.799,-39.343 -60.278,-67.224 -1.035,-3.465 -0.214,-7.453 -2.402,-10.536 -6.524,-10.163 -36.742,-5.25 -21.606,-114.57 4.994,-35.136 19.576,-103.702 33.092,-131.693 32.041,-66.745 167.025,-164.528 207.586,-261.507 m 42.823,106.898 c -3.986,14.294 -9.229,100.152 -76.219,188.714 -16.087,20.816 -27.01,27.139 -22.579,29.334 10.744,5.922 30.716,-25.818 37.17,-36.101 62.403,-99.968 72.442,-177.532 64.406,-186.829 -1.765,0.995 -2.226,3.082 -2.778,4.882 m 35.224,97.645 c -4.369,3.104 -1.849,4.657 -12.848,28.209 -18.218,37.138 -41.048,70.046 -42.199,78.649 14.46,-2.808 61.368,-93.061 57.403,-107.162 -0.792,0 -1.686,-0.27 -2.356,0.304 m 31.692,68.855 c -2.525,4.066 -16.774,29.149 -19.232,34.178 -1.013,2.211 -2.222,4.624 -1.581,7.127 8.021,-2.596 27.064,-39.721 27.017,-48.212 -2.886,1.412 -4.455,4.359 -6.204,6.907 m 43.824,43.212 c -10.978,39.547 -23.96,51.459 -33.548,62.117 -13.896,15.378 -30.158,28.83 -32.614,34.099 0.135,0.152 0.411,0.461 0.546,0.619 40.888,2.873 83.497,-124.252 76.827,-140.248 -4.488,2.25 -6.035,24.656 -11.211,43.413 z"
       id="path68"
       inkscape:connector-curvature="0"
       style="fill:#fb659b" /><path
       d="m 538.522,1145.821 c 13.553,15.68 -22.736,134.224 -78.098,206.899 -4.938,6.482 -16.292,19.993 -23.479,16.031 -4.443,-2.201 6.431,-8.439 22.579,-29.334 39.588,-52.337 62.084,-109.904 72.315,-166.191 1.975,-9.603 2.607,-25.107 6.683,-27.405 z"
       id="path70"
       inkscape:connector-curvature="0"
       style="fill:#fbfdfb" /><path
       d="m 676.543,1221.483 c 11.581,3.625 43.389,60.418 61.69,85.056 2.892,3.923 8.542,12.057 8.944,16.982 -3.316,-0.623 -0.37,-0.636 -16.02,-21.172 -34.475,-44.235 -58.185,-63.791 -54.614,-80.866 z"
       id="path72"
       inkscape:connector-curvature="0"
       style="fill:#fbfdfb" /><path
       d="m 573.324,1248.045 c 3.845,13.675 -42.562,104.28 -57.403,107.162 0.887,-6.625 17.106,-32.141 26.803,-49.59 30.104,-53.788 22.834,-57.572 30.6,-57.572 z"
       id="path74"
       inkscape:connector-curvature="0"
       style="fill:#fbfdfb" /><path
       d="m 269.866,1294.322 c 3.437,-0.878 7.223,-2.301 10.676,-0.72 0,0 -22.75,68.427 -34.335,122.265 -13.382,60.429 5.614,119.731 5.423,127.722 -4.844,-1.545 -27.247,-15.327 -40.528,-31.129 -24.008,-28.106 -25.992,-69.206 -30.043,-87.486 -2.915,-13.613 -9.658,-38.733 -21.488,-46.052 -14.546,-9.068 -58.167,-13.672 -43.138,-29.334 11.244,-12.527 42.897,-16.604 74.042,-25.515 48.05,-14.016 54.309,-22.156 79.391,-29.751 m -82.885,71.837 c -2.61,1.828 -5.563,3.628 -6.767,6.756 5.802,2.599 38.163,-13.197 49.984,-33.818 2.616,-4.455 3.504,-9.607 4.624,-14.569 -25.166,21.361 -34.815,32.216 -47.841,41.631 z"
       id="path76"
       inkscape:connector-curvature="0"
       style="fill:#cb319b" /><path
       d="m 608.863,1310.297 c 0.045,8.082 -18.728,45.529 -27.017,48.212 -1.099,-4.291 3.193,-9.961 11.762,-25.588 7.729,-13.439 11.081,-20.582 15.255,-22.624 z"
       id="path78"
       inkscape:connector-curvature="0"
       style="fill:#fbfdfb" /><path
       d="m 797.329,1313.925 c 59.286,44.264 124.341,51.339 201.904,55.862 14.057,0.793 28.119,1.62 42.199,1.851 27.45,-0.2 32.201,-9.011 52.183,-6.947 3.324,0.461 7.155,1.26 9.191,4.208 2.983,5.793 -2.251,22.863 -7.819,32.811 -4.799,8.801 -28.499,25.217 -36.861,30.634 -9.533,5.881 -0.941,0.223 -20.447,8.82 -8.752,4.037 -50.845,23.815 -57.01,31.86 -15.644,19.345 -25.337,43.844 -33.908,54.186 -1.954,-1.425 -101.094,-114.499 -131.833,-162.36 -19.93,-31.959 -17.548,-38.41 -17.599,-50.925 m 78.025,74.138 c 4.994,4.966 76.352,31.001 136.896,7.386 2.115,-1.063 4.883,-1.637 5.974,-3.971 -4.101,-0.219 -7.976,1.328 -11.768,2.678 -16.932,6.31 -77.417,5.742 -96.418,0.99 -12.519,-3.152 -31.64,-10.496 -34.684,-7.083 m 32.197,38.846 c 4.599,5.776 48.892,8.167 56.666,1.71 -4.892,-1.33 -3.711,0.02 -31.309,-2.205 -14.268,-1.037 -21.807,-2.502 -25.357,0.495 z"
       id="path80"
       inkscape:connector-curvature="0"
       style="fill:#cb319b" /><path
       d="m 657.694,1317.002 c 6.484,15.548 -35.64,143.142 -76.827,140.248 -0.135,-0.157 -0.411,-0.467 -0.546,-0.619 2.455,-5.267 18.683,-18.682 32.614,-34.099 8.655,-9.622 29.391,-28.263 38.824,-87.177 0.585,-3.325 2.943,-16.852 5.935,-18.353 z"
       id="path82"
       inkscape:connector-curvature="0"
       style="fill:#fbfdfb" /><path
       d="m 234.822,1324.528 c -1.565,6.936 -2.528,19.531 -24.086,35.004 -5.348,3.636 -24.645,16.014 -30.521,13.382 1.204,-3.128 4.157,-4.927 6.767,-6.756 13.034,-9.42 22.534,-20.15 47.84,-41.63 z"
       id="path84"
       inkscape:connector-curvature="0"
       style="fill:#fbfdfb" /><path
       d="m 875.354,1388.063 c 3.037,-3.404 22.311,3.969 34.684,7.082 18.751,4.69 79.499,5.315 96.418,-0.99 3.791,-1.35 7.667,-2.897 11.768,-2.678 -1.091,2.334 -3.859,2.908 -5.974,3.971 -57.588,22.462 -130.616,-1.139 -136.896,-7.385 z"
       id="path86"
       inkscape:connector-curvature="0"
       style="fill:#fbfdfb" /><path
       d="m 776.213,1406.755 c 1.228,-2.913 9.447,8.358 11.261,10.834 13.017,18.961 16.818,30.991 18.293,53.758 1.768,37.732 -7.308,76.238 -12.971,80.027 -0.296,-8.951 7.267,-27.681 8.899,-48.004 4.728,-55.818 -23.348,-83.868 -25.482,-96.615 z"
       id="path88"
       inkscape:connector-curvature="0"
       style="fill:#fbfdfb" /><path
       d="m 907.551,1426.909 c 3.519,-2.97 10.724,-1.558 25.358,-0.495 27.449,2.213 26.453,0.885 31.309,2.205 -7.497,6.227 -51.909,4.265 -56.667,-1.71 z"
       id="path90"
       inkscape:connector-curvature="0"
       style="fill:#fbfdfb" /><path
       d="m 712.65,1458.341 c 3.836,9.845 -1.898,39.652 -11.458,48.493 5.631,-15.704 6.924,-32.506 11.458,-48.493 z"
       id="path92"
       inkscape:connector-curvature="0"
       style="fill:#fbfdfb" /><path
       d="m 486.451,1476.285 c 2.745,-1.704 6.098,-1.586 8.983,-0.304 -0.9,0.309 -1.794,0.641 -2.7,0.945 -2.109,-0.106 -4.201,-0.337 -6.283,-0.641 z"
       id="path94"
       inkscape:connector-curvature="0"
       style="fill:#fbfdfb" /><path
       d="m 492.734,1476.927 c 30.454,7.916 57.484,24.059 81.304,44.078 -15.936,46.005 -43.083,80.691 -45.456,83.368 -39.837,-31.791 -85.606,-80.161 -141.593,-70.234 -11.503,1.811 -23.009,7.913 -27.703,6.874 -5.269,-4.157 13.943,-25.274 18.512,-30.173 6.589,-6.967 10.476,-11.675 33.289,-23.49 22.827,-11.461 22.848,-13.402 81.647,-10.423 z"
       id="path96"
       inkscape:connector-curvature="0"
       style="fill:#cb319b" /></g></svg>